<svg aria-hidden="true" style="position: absolute; width: 0; height: 0; overflow: hidden;" version="1.1" xmlns="http://www.w3.org/2000/svg" xmlns:xlink="http://www.w3.org/1999/xlink">
<defs>
<symbol id="icon-Compound-Grants-1" viewBox="0 0 32 32">
<path d="M27.513 0h-23.33c-2.31 0-4.183 1.873-4.183 4.183v23.331c0 2.31 1.873 4.183 4.183 4.183h23.33c2.31 0 4.183-1.873 4.183-4.183v-23.331c0-2.31-1.873-4.183-4.183-4.183z"></path>
<path d="M8.902 21.408c-0.492-0.303-0.794-0.843-0.794-1.423v-3.237c0-0.124 0.033-0.243 0.095-0.35 0.191-0.332 0.616-0.445 0.945-0.25l7.26 4.259c0.424 0.25 0.686 0.706 0.686 1.201v3.354c0 0.153-0.042 0.305-0.121 0.436-0.24 0.394-0.75 0.518-1.141 0.277l-6.93-4.268zM19.723 15.262c0.424 0.25 0.686 0.706 0.686 1.201v6.806c0 0.201-0.108 0.387-0.282 0.484l-1.589 0.901c-0.020 0.011-0.042 0.020-0.064 0.027v-3.779c0-0.489-0.255-0.942-0.673-1.195l-6.376-3.839v-4.266c0-0.124 0.033-0.243 0.095-0.35 0.191-0.332 0.616-0.445 0.945-0.25l7.257 4.259zM22.9 10.235c0.427 0.248 0.688 0.708 0.688 1.204v9.941c0 0.204-0.112 0.392-0.29 0.489l-1.506 0.819v-6.921c0-0.489-0.255-0.94-0.671-1.193l-6.516-3.934v-4.047c0-0.124 0.033-0.243 0.092-0.35 0.191-0.332 0.616-0.445 0.945-0.252l7.257 4.244z"></path>
</symbol>
<symbol id="icon-send" viewBox="0 0 32 32">
<path d="M0.955 28.706l29.633-12.706-29.633-12.706-0.014 9.882 21.176 2.824-21.176 2.824 0.014 9.882z"></path>
</symbol>
<symbol id="icon-youtube" viewBox="0 0 32 32">
<path d="M20.865 15.702c-2.872-1.429-5.622-2.742-8.433-4.113v8.203c2.958-1.497 6.076-2.867 8.445-4.090h-0.012z"></path>
<path d="M20.865 15.702c-2.872-1.429-8.433-4.113-8.433-4.113l7.414 4.639c0.001 0-1.351 0.697 1.019-0.525z"></path>
<path d="M12.972 26.213c-5.965-0.102-8.003-0.194-9.255-0.434-0.847-0.16-1.584-0.514-2.123-1.028-0.417-0.389-0.749-0.982-1.006-1.806-0.221-0.686-0.307-1.257-0.429-2.651-0.188-3.146-0.232-5.718 0-8.592 0.192-1.587 0.285-3.471 1.559-4.57 0.601-0.514 1.301-0.846 2.087-0.982 1.227-0.217 6.456-0.388 11.869-0.388 5.401 0 10.641 0.171 11.87 0.388 0.982 0.171 1.902 0.685 2.442 1.348 1.162 1.702 1.183 3.818 1.3 5.473 0.049 0.789 0.049 5.267 0 6.056-0.184 2.616-0.331 3.542-0.748 4.501-0.258 0.606-0.478 0.926-0.86 1.28-0.598 0.545-1.36 0.908-2.185 1.040-5.162 0.361-9.546 0.44-14.52 0.366zM20.877 15.702c-2.872-1.429-5.622-2.753-8.433-4.125v8.204c2.958-1.497 6.076-2.868 8.445-4.091l-0.012 0.011z"></path>
</symbol>
<symbol id="icon-linkedin" viewBox="0 0 32 32">
<path d="M29.434 15.18v10.419c0 0.256-0.219 0.475-0.475 0.475h-5.374c-0.256 0-0.475-0.219-0.475-0.475v-9.688c0-2.559-0.914-4.314-3.217-4.314-1.755 0-2.778 1.17-3.254 2.303-0.183 0.402-0.219 0.987-0.219 1.535v10.163c0 0.256-0.219 0.475-0.475 0.475h-5.338c-0.256 0-0.475-0.219-0.475-0.475 0-2.596 0.073-15.135 0-18.060 0-0.256 0.219-0.475 0.475-0.475h5.374c0.256 0 0.475 0.219 0.475 0.475v2.23c0 0.037-0.037 0.037-0.037 0.073h0.037v-0.073c0.841-1.28 2.34-3.144 5.703-3.144 4.168 0 7.275 2.742 7.275 8.555zM0.772 26.112h5.374c0.256 0 0.475-0.219 0.475-0.475v-18.097c0-0.256-0.219-0.475-0.475-0.475h-5.374c-0.256 0-0.475 0.219-0.475 0.475v18.097c0.037 0.256 0.219 0.475 0.475 0.475z"></path>
</symbol>
<symbol id="icon-people_alt_black_24dp-1-1" viewBox="0 0 32 32">
<path d="M22.227 17.507c1.827 1.24 3.107 2.92 3.107 5.16v4h5.333v-4c0-2.907-4.76-4.627-8.44-5.16z"></path>
<path d="M12.001 16c2.946 0 5.333-2.388 5.333-5.333s-2.388-5.333-5.333-5.333c-2.946 0-5.333 2.388-5.333 5.333s2.388 5.333 5.333 5.333z"></path>
<path d="M20 16c2.947 0 5.333-2.387 5.333-5.333s-2.387-5.333-5.333-5.333c-0.627 0-1.213 0.133-1.773 0.32 1.107 1.373 1.773 3.12 1.773 5.013s-0.667 3.64-1.773 5.013c0.56 0.187 1.147 0.32 1.773 0.32z"></path>
<path d="M12.001 17.333c-3.56 0-10.667 1.787-10.667 5.333v4h21.333v-4c0-3.547-7.107-5.333-10.667-5.333z"></path>
</symbol>
<symbol id="icon-forefront-3" viewBox="0 0 32 32">
<path d="M0 0h32v32h-32v-32z"></path>
</symbol>
<symbol id="icon-Party-DAO-3" viewBox="0 0 32 32">
<path d="M0 0h32v32h-32v-32z"></path>
</symbol>
<symbol id="icon-DYDX-1" viewBox="0 0 32 32">
<path d="M29.242 11.077l-6.8 9.758h2.088l6.835-9.758h-2.123z"></path>
<path d="M24.747 11.077l2.001 2.875-1.044 1.568-3.088-4.444h2.131z"></path>
<path d="M29.444 20.836l-2.218-3.18 1.044-1.525 3.262 4.705h-2.088z"></path>
<path d="M20.007 11.077h1.827v9.758h-1.827v-0.364c-0.528 0.288-1.133 0.452-1.777 0.452-2.045 0-3.703-1.653-3.703-3.692s1.658-3.692 3.703-3.692c0.644 0 1.25 0.164 1.777 0.452v-2.914zM18.21 19.303c1.158 0 2.097-0.936 2.097-2.091s-0.939-2.091-2.097-2.091-2.097 0.936-2.097 2.091c0 1.155 0.939 2.091 2.097 2.091z"></path>
<path d="M14.708 11.077l-6.793 9.758h2.129l6.786-9.758h-2.123z"></path>
<path d="M10.047 11.077l2.131 2.963-1.174 1.656-3.175-4.618h2.218z"></path>
<path d="M5.48 11.077h1.827v9.758h-1.827v-0.364c-0.528 0.288-1.133 0.452-1.777 0.452-2.045 0-3.703-1.653-3.703-3.692s1.658-3.692 3.703-3.692c0.644 0 1.25 0.164 1.777 0.452v-2.914zM3.683 19.303c1.158 0 2.097-0.936 2.097-2.091s-0.939-2.091-2.097-2.091-2.097 0.936-2.097 2.091c0 1.155 0.939 2.091 2.097 2.091z"></path>
</symbol>
<symbol id="icon-Aave-Grants-DAO-3" viewBox="0 0 32 32">
<path d="M0 0h32v32h-32v-32z"></path>
</symbol>
<symbol id="icon-Synthetix-1" viewBox="0 0 32 32">
<path d="M3.068 15.885c-0.136-0.133-0.299-0.199-0.489-0.199h-1.887c-0.035 0-0.065-0.012-0.090-0.037s-0.038-0.054-0.038-0.089v-0.153c0-0.033 0.013-0.062 0.038-0.087s0.055-0.037 0.090-0.037h2.433c0.006 0 0.011-0.002 0.015-0.006s0.006-0.008 0.006-0.013v-0.457c0-0.006-0.002-0.011-0.006-0.014s-0.009-0.005-0.015-0.005h-2.433c-0.192 0-0.355 0.066-0.49 0.199s-0.202 0.292-0.202 0.48v0.030c0 0.189 0.067 0.35 0.202 0.482s0.298 0.199 0.49 0.199h1.887c0.034 0 0.063 0.012 0.088 0.035s0.038 0.053 0.038 0.088v0.153c0 0.035-0.013 0.064-0.038 0.088s-0.054 0.035-0.088 0.035h-2.435c-0.005 0-0.009 0.002-0.013 0.006s-0.006 0.009-0.006 0.015v0.457c0 0.005 0.002 0.009 0.006 0.013s0.008 0.006 0.013 0.006h2.435c0.19 0 0.353-0.067 0.489-0.2s0.203-0.294 0.203-0.481v-0.030c-0-0.187-0.068-0.347-0.203-0.48z"></path>
<path d="M7.165 14.791h-0.528c-0.005 0-0.009 0.002-0.013 0.005s-0.006 0.008-0.006 0.014v0.58c0 0.050-0.026 0.088-0.078 0.114l-1.053 0.436-1.053-0.436c-0.052-0.026-0.078-0.064-0.078-0.114v-0.58c0-0.006-0.002-0.011-0.005-0.014s-0.008-0.005-0.014-0.005h-0.528c-0.005 0-0.009 0.002-0.013 0.005s-0.006 0.008-0.006 0.014v0.665c0 0.099 0.027 0.19 0.082 0.272s0.129 0.143 0.224 0.183l1.106 0.464v0.663c0 0.006 0.002 0.011 0.006 0.015s0.009 0.006 0.015 0.006h0.528c0.005 0 0.009-0.002 0.013-0.006s0.006-0.009 0.006-0.015v-0.663l1.106-0.461c0.094-0.041 0.169-0.102 0.224-0.184s0.082-0.172 0.082-0.271v-0.667c0-0.006-0.002-0.011-0.006-0.014s-0.008-0.005-0.013-0.005z"></path>
<path d="M11.085 14.791h-0.528c-0.006 0-0.011 0.002-0.014 0.006s-0.005 0.008-0.005 0.013v1.773h-0.222c-0.041 0-0.076-0.018-0.105-0.055l-1.023-1.496c-0.11-0.154-0.261-0.234-0.455-0.24h-0.882c-0.006 0-0.011 0.002-0.015 0.006s-0.006 0.008-0.006 0.013v2.248c0 0.005 0.002 0.009 0.006 0.013s0.009 0.006 0.015 0.006h0.528c0.005 0 0.009-0.002 0.013-0.006s0.006-0.008 0.006-0.013v-1.773h0.222c0.041 0 0.076 0.019 0.105 0.057l1.023 1.496c0.11 0.154 0.261 0.233 0.455 0.238h0.882c0.006 0 0.011-0.002 0.014-0.006s0.005-0.008 0.005-0.013v-2.248c0-0.005-0.002-0.009-0.005-0.013s-0.008-0.006-0.014-0.006z"></path>
<path d="M14.899 14.791h-3.233c-0.006 0-0.011 0.002-0.014 0.006s-0.005 0.008-0.005 0.013v0.457c0 0.005 0.001 0.009 0.005 0.013s0.008 0.006 0.014 0.006h1.334v1.773c0 0.005 0.001 0.009 0.005 0.013s0.008 0.006 0.014 0.006h0.528c0.006 0 0.011-0.002 0.014-0.006s0.005-0.008 0.005-0.013v-1.773h1.334c0.006 0 0.011-0.002 0.015-0.006s0.006-0.008 0.006-0.013v-0.457c0-0.005-0.002-0.009-0.006-0.013s-0.009-0.006-0.015-0.006z"></path>
<path d="M18.819 14.791h-0.528c-0.005 0-0.009 0.002-0.012 0.006s-0.006 0.008-0.006 0.013v0.877h-2.138v-0.877c0-0.005-0.002-0.009-0.006-0.013s-0.009-0.006-0.015-0.006h-0.528c-0.004 0-0.009 0.002-0.012 0.006s-0.006 0.008-0.006 0.013v2.248c0 0.005 0.002 0.009 0.006 0.013s0.008 0.006 0.012 0.006h0.528c0.006 0 0.011-0.002 0.015-0.006s0.006-0.008 0.006-0.013v-0.877h2.138v0.877c0 0.005 0.002 0.009 0.006 0.013s0.008 0.006 0.012 0.006h0.528c0.006 0 0.011-0.002 0.015-0.006s0.006-0.008 0.006-0.013v-2.248c0-0.005-0.002-0.009-0.006-0.013s-0.009-0.006-0.015-0.006z"></path>
<path d="M22.726 14.791h-2.561c-0.19 0-0.353 0.066-0.489 0.199s-0.203 0.292-0.203 0.48v0.925c0 0.189 0.068 0.35 0.203 0.482s0.299 0.199 0.489 0.199h2.561c0.005 0 0.009-0.002 0.012-0.006s0.006-0.008 0.006-0.013v-0.457c0-0.006-0.002-0.011-0.006-0.014s-0.008-0.005-0.012-0.005h-2.561c-0.035 0-0.065-0.012-0.089-0.037s-0.037-0.053-0.037-0.087v-0.279h2.685c0.006 0 0.011-0.002 0.014-0.006s0.004-0.008 0.004-0.013v-0.457c0-0.006-0.001-0.011-0.004-0.014s-0.008-0.005-0.014-0.005h-2.685v-0.279c0-0.034 0.012-0.062 0.037-0.087s0.054-0.037 0.089-0.037h2.561c0.005 0 0.009-0.002 0.012-0.006s0.006-0.008 0.006-0.013v-0.457c0-0.005-0.002-0.009-0.006-0.013s-0.008-0.006-0.012-0.006z"></path>
<path d="M26.627 14.791h-3.233c-0.006 0-0.011 0.002-0.014 0.006s-0.005 0.008-0.005 0.013v0.457c0 0.005 0.002 0.009 0.005 0.013s0.008 0.006 0.014 0.006h1.334v1.773c0 0.005 0.001 0.009 0.005 0.013s0.008 0.006 0.014 0.006h0.528c0.006 0 0.011-0.002 0.014-0.006s0.005-0.008 0.005-0.013v-1.773h1.334c0.006 0 0.011-0.002 0.015-0.006s0.006-0.008 0.006-0.013v-0.457c0-0.005-0.002-0.009-0.006-0.013s-0.009-0.006-0.015-0.006z"></path>
<path d="M27.855 14.796c-0.003-0.003-0.008-0.005-0.014-0.005h-0.528c-0.006 0-0.011 0.002-0.014 0.005s-0.005 0.008-0.005 0.014v2.248c0 0.005 0.001 0.009 0.005 0.013s0.008 0.006 0.014 0.006h0.528c0.006 0 0.011-0.002 0.014-0.006s0.005-0.008 0.005-0.013v-2.248c0-0.006-0.001-0.011-0.005-0.014z"></path>
<path d="M29.312 15.346c-0.023-0.026-0.051-0.039-0.084-0.039h-0.686c-0.006 0-0.011-0.002-0.015-0.006s-0.006-0.008-0.006-0.013v-0.457c0-0.005 0.002-0.009 0.006-0.013s0.009-0.006 0.015-0.006h0.724c0.183 0 0.34 0.074 0.473 0.222l0.176 0.212-0.342 0.414-0.261-0.315zM30.578 15.033c0.133-0.146 0.291-0.219 0.475-0.219h0.722c0.006 0 0.011 0.002 0.014 0.005s0.005 0.008 0.005 0.014v0.457c0 0.005-0.002 0.009-0.005 0.013s-0.008 0.006-0.014 0.006h-0.685c-0.034 0-0.062 0.013-0.084 0.039l-0.505 0.608 0.507 0.612c0.023 0.024 0.050 0.037 0.082 0.037h0.685c0.006 0 0.011 0.002 0.014 0.006s0.005 0.009 0.005 0.015v0.457c0 0.005-0.002 0.009-0.005 0.013s-0.008 0.006-0.014 0.006h-0.722c-0.184 0-0.342-0.074-0.473-0.222l-0.42-0.507-0.42 0.507c-0.133 0.148-0.291 0.222-0.475 0.222h-0.722c-0.006 0-0.011-0.002-0.014-0.006s-0.005-0.009-0.005-0.015v-0.457c0-0.005 0.001-0.009 0.005-0.013s0.008-0.006 0.014-0.006h0.686c0.032 0 0.060-0.013 0.084-0.039l0.496-0.599 0.77-0.932z"></path>
</symbol>
<symbol id="icon-Aave-Grants-DAO-31" viewBox="0 0 32 32">
<path d="M15.999 31.52c8.572 0 15.52-6.948 15.52-15.52s-6.948-15.52-15.52-15.52c-8.571 0-15.52 6.949-15.52 15.52s6.949 15.52 15.52 15.52z"></path>
<path d="M22.791 22.184l-5.248-12.688c-0.296-0.656-0.736-0.976-1.316-0.976h-0.464c-0.58 0-1.020 0.32-1.316 0.976l-2.284 5.528h-1.728c-0.516 0.004-0.936 0.42-0.94 0.94v0.012c0.004 0.516 0.424 0.936 0.94 0.94h0.928l-2.18 5.268c-0.040 0.116-0.064 0.236-0.064 0.36 0 0.296 0.092 0.528 0.256 0.708s0.4 0.268 0.696 0.268c0.196-0.004 0.384-0.064 0.54-0.18 0.168-0.116 0.284-0.284 0.376-0.476l2.4-5.952h1.664c0.516-0.004 0.936-0.42 0.94-0.94v-0.024c-0.004-0.516-0.424-0.936-0.94-0.94h-0.888l1.832-4.564 4.992 12.416c0.092 0.192 0.208 0.36 0.376 0.476 0.156 0.116 0.348 0.176 0.54 0.18 0.296 0 0.528-0.088 0.696-0.268s0.256-0.412 0.256-0.708c0.004-0.12-0.016-0.244-0.064-0.356z"></path>
</symbol>
<symbol id="icon-Indexcoop-3" viewBox="0 0 32 32">
<path d="M15.557 30.982c-8.595 0-15.557-6.929-15.557-15.491s6.962-15.491 15.557-15.491 15.557 6.929 15.557 15.491c0 8.562-6.962 15.491-15.557 15.491zM15.557 25.652c6.296 0 11.36-5.064 11.36-11.293s-5.097-8.828-11.36-8.828c-6.296 0-11.36 2.565-11.36 8.828-0.033 6.263 5.064 11.293 11.36 11.293z"></path>
<path d="M8.828 16.191c0.666 0 1.266-0.267 1.732-0.666 0.233 0.433 0.533 0.899 0.8 1.366 0.6 0.999 1.266 2.032 1.866 2.798 0.3 0.4 0.633 0.766 0.933 1.033 0.266 0.233 0.733 0.566 1.266 0.566s0.999-0.333 1.266-0.566c0.333-0.266 0.666-0.633 0.966-0.999 0.633-0.766 1.332-1.799 1.965-2.798 0.3-0.5 0.6-0.966 0.866-1.433 0.466 0.433 1.099 0.733 1.766 0.733 1.399 0 2.565-1.133 2.565-2.532s-1.133-2.532-2.565-2.532c-1.133 0-2.132 0.766-2.432 1.799-0.067 0.1-0.133 0.233-0.2 0.367-0.4 0.733-0.966 1.699-1.566 2.665s-1.266 1.932-1.832 2.599c-0.3 0.333-0.533 0.6-0.733 0.766-0.033 0.033-0.067 0.033-0.067 0.067-0.033 0-0.033-0.033-0.067-0.067-0.2-0.167-0.433-0.4-0.7-0.766-0.533-0.7-1.166-1.632-1.732-2.599s-1.099-1.932-1.499-2.665c-0.067-0.1-0.1-0.2-0.133-0.267-0.3-1.099-1.299-1.899-2.465-1.899-1.399 0-2.565 1.133-2.565 2.532 0 1.366 1.133 2.499 2.565 2.499z"></path>
</symbol>
<symbol id="icon-Bankless-DAO-3" viewBox="0 0 32 32">
<path d="M0 0h32v32h-32v-32z"></path>
</symbol>
<symbol id="icon-Vector-6" viewBox="0 0 32 32">
<path d="M0.444 3.901v24.198c0 1.901 1.538 3.457 3.457 3.457h24.198c1.901 0 3.457-1.556 3.457-3.457v-24.198c0-1.901-1.556-3.457-3.457-3.457h-24.198c-1.919 0-3.457 1.556-3.457 3.457zM21.185 10.815c0 2.869-2.316 5.185-5.185 5.185s-5.185-2.316-5.185-5.185c0-2.869 2.316-5.185 5.185-5.185s5.185 2.316 5.185 5.185zM5.63 24.642c0-3.457 6.914-5.358 10.37-5.358s10.37 1.901 10.37 5.358v1.728h-20.741v-1.728z"></path>
</symbol>
<symbol id="icon-Vector-5" viewBox="0 0 32 32">
<path d="M19.011 0.946h-12.043c-1.656 0-2.996 1.355-2.996 3.011l-0.015 24.086c0 1.656 1.34 3.011 2.996 3.011h18.079c1.656 0 3.011-1.355 3.011-3.011v-18.065l-9.032-9.032zM20.517 16h-6.021v1.505h4.516c0.828 0 1.505 0.677 1.505 1.505v4.516c0 0.828-0.677 1.505-1.505 1.505h-1.505v1.505h-3.011v-1.505h-3.011v-3.011h6.022v-1.505h-4.516c-0.828 0-1.505-0.677-1.505-1.505v-4.516c0-0.828 0.677-1.505 1.505-1.505h1.505v-1.505h3.011v1.505h3.011v3.011zM17.506 9.979v-6.774l6.774 6.774h-6.774z"></path>
</symbol>
<symbol id="icon-Vector-4" viewBox="0 0 32 32">
<path d="M31.054 14.495v-12.043h-10.538v4.516h-9.032v-4.516h-10.538v12.043h10.538v-4.516h3.011v15.054h6.021v4.516h10.538v-12.043h-10.538v4.516h-3.011v-12.043h3.011v4.516h10.538z"></path>
</symbol>
<symbol id="icon-Vector-3" viewBox="0 0 32 32">
<path d="M16 0.714c-8.442 0-15.286 6.844-15.286 15.286s6.844 15.286 15.286 15.286 15.286-6.844 15.286-15.286c0-8.442-6.844-15.286-15.286-15.286zM27.188 16.834h-7.093c-0.211 1.060-0.812 2.002-1.683 2.641s-1.951 0.928-3.025 0.81c-1.074-0.118-2.065-0.634-2.778-1.446s-1.095-1.863-1.071-2.943c0.024-1.080 0.451-2.113 1.198-2.893s1.76-1.253 2.838-1.324c1.078-0.071 2.144 0.265 2.987 0.941s1.402 1.644 1.567 2.711h7.060c0.101-0.003 0.201 0.014 0.295 0.050s0.18 0.091 0.252 0.161 0.13 0.154 0.169 0.247c0.039 0.093 0.060 0.192 0.060 0.293s-0.020 0.2-0.060 0.293c-0.039 0.093-0.097 0.177-0.169 0.247s-0.158 0.125-0.252 0.161-0.194 0.053-0.295 0.050z"></path>
</symbol>
<symbol id="icon-arrow" viewBox="0 0 32 32">
<path d="M10 2v4h13.18l-23.18 23.18 2.82 2.82 23.18-23.18v13.18h4v-20h-20z"></path>
</symbol>
<symbol id="icon-discord" viewBox="0 0 32 32">
<path d="M26.227 5.958c-1.975-0.906-4.092-1.574-6.306-1.956-0.040-0.007-0.081 0.011-0.101 0.048-0.272 0.484-0.574 1.116-0.785 1.613-2.381-0.356-4.75-0.356-7.083 0-0.211-0.508-0.524-1.129-0.797-1.613-0.021-0.036-0.061-0.054-0.101-0.048-2.213 0.381-4.33 1.049-6.306 1.956-0.017 0.007-0.032 0.020-0.042 0.036-4.017 6.001-5.117 11.854-4.577 17.634 0.002 0.028 0.018 0.055 0.040 0.073 2.65 1.946 5.217 3.128 7.736 3.911 0.040 0.012 0.083-0.002 0.109-0.036 0.596-0.814 1.127-1.672 1.583-2.574 0.027-0.053 0.001-0.116-0.054-0.136-0.843-0.32-1.645-0.709-2.417-1.152-0.061-0.036-0.066-0.123-0.010-0.165 0.162-0.122 0.325-0.248 0.48-0.376 0.028-0.023 0.067-0.028 0.1-0.013 5.070 2.315 10.56 2.315 15.57 0 0.033-0.016 0.072-0.011 0.101 0.012 0.155 0.128 0.318 0.256 0.481 0.377 0.056 0.042 0.053 0.129-0.009 0.165-0.772 0.451-1.574 0.832-2.418 1.151-0.055 0.021-0.079 0.085-0.053 0.138 0.465 0.901 0.997 1.759 1.581 2.573 0.024 0.035 0.068 0.049 0.109 0.037 2.532-0.783 5.099-1.965 7.749-3.911 0.023-0.017 0.038-0.043 0.040-0.071 0.646-6.683-1.082-12.488-4.581-17.634-0.009-0.017-0.023-0.029-0.040-0.037zM10.353 20.108c-1.527 0-2.784-1.401-2.784-3.123s1.233-3.123 2.784-3.123c1.563 0 2.809 1.414 2.784 3.123 0 1.721-1.233 3.123-2.784 3.123zM20.648 20.108c-1.526 0-2.784-1.401-2.784-3.123s1.233-3.123 2.784-3.123c1.563 0 2.809 1.414 2.784 3.123 0 1.721-1.221 3.123-2.784 3.123z"></path>
</symbol>
<symbol id="icon-twitter" viewBox="0 0 32 32">
<path d="M32 6.189c-1.204 0.525-2.477 0.874-3.78 1.036 1.373-0.815 2.4-2.105 2.886-3.626-1.286 0.763-2.693 1.3-4.16 1.588-0.9-0.96-2.067-1.628-3.351-1.916s-2.625-0.184-3.849 0.3c-1.224 0.484-2.274 1.324-3.013 2.413s-1.135 2.374-1.135 3.69c0 0.52 0.044 1.020 0.152 1.496-2.61-0.128-5.163-0.805-7.493-1.988s-4.384-2.843-6.029-4.874c-0.842 1.444-1.103 3.154-0.728 4.783s1.356 3.054 2.744 3.985c-1.038-0.028-2.055-0.305-2.964-0.808v0.072c0.002 1.515 0.525 2.983 1.483 4.157s2.29 1.982 3.773 2.289c-0.561 0.148-1.14 0.221-1.72 0.216-0.417 0.007-0.833-0.030-1.242-0.112 0.424 1.302 1.241 2.441 2.339 3.259s2.422 1.276 3.791 1.311c-2.322 1.816-5.186 2.801-8.134 2.798-0.538 0-1.054-0.024-1.57-0.090 3 1.933 6.495 2.956 10.064 2.944 12.072 0 18.672-10 18.672-18.668 0-0.29-0.010-0.57-0.024-0.848 1.294-0.926 2.408-2.080 3.288-3.406z"></path>
</symbol>
</defs>
</svg>
